<?xml version="1.0" standalone="no"?>
<!DOCTYPE svg PUBLIC "-//W3C//DTD SVG 20010904//EN"
 "http://www.w3.org/TR/2001/REC-SVG-20010904/DTD/svg10.dtd">
<svg version="1.0" xmlns="http://www.w3.org/2000/svg"
 width="300.000000pt" height="232.000000pt" viewBox="0 0 300.000000 232.000000"
 preserveAspectRatio="xMidYMid meet">
<metadata>
Created by potrace 1.10, written by Peter Selinger 2001-2011
</metadata>
<g transform="translate(0.000000,232.000000) scale(0.100000,-0.100000)"
fill="#000000" stroke="none">
<path d="M1924 2144 c-8 -19 -14 -54 -13 -77 1 -23 -1 -50 -6 -60 -7 -16 -4
-17 21 -11 45 11 82 32 95 55 15 30 5 34 -40 17 l-40 -16 10 25 c12 33 12 103
-2 103 -5 0 -17 -16 -25 -36z m22 -38 c-4 -19 -12 -38 -18 -42 -7 -5 -9 5 -3
32 4 21 9 43 12 47 10 17 15 -3 9 -37z m59 -56 c-8 -13 -66 -43 -71 -37 -7 7
47 47 63 47 8 0 11 -5 8 -10z"/>
<path d="M880 2132 c0 -41 19 -76 52 -93 20 -11 20 -9 14 27 -7 39 -44 104
-58 104 -5 0 -8 -17 -8 -38z m46 -48 c-8 -22 -22 -9 -32 31 l-6 30 22 -22 c15
-14 20 -27 16 -39z"/>
<path d="M1390 2157 c0 -8 8 -21 18 -31 13 -11 19 -30 19 -57 0 -28 -3 -37
-11 -29 -19 19 -29 10 -10 -11 24 -27 31 -147 7 -127 -10 8 -11 13 -3 18 7 5
6 11 -4 19 -12 11 -15 9 -14 -11 1 -13 6 -29 11 -35 6 -9 5 -13 -4 -13 -7 0
-3 -11 12 -26 l24 -27 -25 13 -25 13 23 -25 c18 -20 22 -35 21 -74 l-2 -49
-78 0 c-44 0 -79 3 -79 6 0 13 89 31 121 25 l34 -7 -27 21 c-17 13 -28 31 -28
45 0 37 -19 77 -51 111 l-29 30 26 25 c15 13 33 38 40 56 16 38 19 103 4 103
-5 0 -10 -18 -10 -40 0 -43 -18 -88 -44 -109 -13 -11 -14 -8 -5 24 11 39 3
135 -11 135 -4 0 -6 -27 -3 -59 3 -33 2 -72 -2 -88 l-8 -28 -18 40 c-10 22
-19 54 -19 72 0 17 -5 35 -12 39 -17 11 -2 -79 22 -126 11 -21 20 -55 20 -75
0 -20 5 -46 10 -58 7 -14 1 -10 -18 11 -17 19 -32 50 -36 72 -3 21 -11 42 -18
46 -11 7 -9 -10 7 -49 4 -10 4 -17 -1 -16 -5 1 -18 1 -29 0 -16 -2 -12 -6 14
-19 40 -20 52 -42 22 -42 -35 0 -32 -17 7 -33 20 -9 46 -18 57 -20 17 -3 16
-6 -10 -17 -17 -7 -25 -14 -17 -17 7 -3 24 2 38 12 23 15 26 15 49 -3 l24 -19
-40 -6 c-22 -3 -48 -12 -58 -21 -10 -9 -34 -16 -55 -16 l-37 0 20 29 c29 41
27 55 -6 46 -39 -9 -49 -20 -58 -58 -6 -28 -8 -30 -15 -12 -14 33 -11 62 9 97
29 51 35 78 17 78 -24 0 -46 -41 -46 -85 l-1 -40 -19 35 c-26 47 -25 69 5 100
30 31 45 90 23 90 -28 0 -60 -47 -62 -89 l-1 -41 -17 33 c-23 43 -22 50 7 93
16 23 25 50 25 73 l-1 36 -29 -33 c-23 -25 -30 -42 -30 -75 0 -31 -3 -38 -10
-27 -7 9 -8 50 -4 108 4 62 3 92 -4 92 -15 0 -21 -26 -24 -102 l-2 -67 -33 30
c-19 16 -45 29 -60 29 l-27 0 33 -34 c19 -20 48 -37 67 -41 45 -8 80 -67 47
-79 -16 -6 -67 17 -79 35 -7 12 28 9 71 -5 11 -3 2 3 -20 14 -39 19 -75 26
-75 14 0 -32 59 -74 104 -74 31 0 66 -36 62 -64 -4 -27 -27 -31 -66 -11 -43
22 -26 43 21 26 39 -14 53 -6 15 9 -41 15 -86 13 -86 -5 0 -24 60 -55 106 -55
36 0 42 -3 57 -35 9 -19 13 -34 9 -33 -4 1 -19 -2 -33 -6 -28 -8 -115 22 -91
31 15 6 67 0 97 -11 20 -8 20 -7 1 8 -13 11 -40 16 -78 16 -63 0 -73 -10 -32
-29 36 -16 28 -20 -27 -14 l-45 5 -21 108 c-35 185 -59 200 -304 200 -164 0
-199 -7 -199 -38 0 -38 19 -42 195 -42 169 0 172 0 195 -25 23 -25 45 -130
165 -803 19 -106 41 -202 49 -214 14 -19 12 -24 -20 -62 -19 -22 -37 -51 -41
-65 -11 -42 9 -93 46 -118 l34 -23 478 0 c468 0 479 0 489 20 8 14 8 26 0 40
-10 19 -23 20 -488 22 -455 3 -477 4 -480 22 -2 10 10 32 29 52 l33 34 448 0
c432 0 448 1 458 19 13 25 13 27 -6 45 -14 14 -67 16 -440 16 -273 0 -432 4
-445 10 -20 11 -54 68 -45 77 2 3 15 -4 27 -16 22 -21 30 -21 452 -21 255 0
436 4 446 10 29 15 37 47 97 378 52 291 55 314 40 336 -8 14 -29 27 -46 31
-16 4 -30 9 -30 11 0 3 11 27 25 54 17 33 30 48 39 44 16 -6 31 12 17 21 -20
11 2 35 33 36 24 1 26 3 8 6 -19 4 -21 7 -11 19 8 10 25 12 67 7 44 -5 54 -3
50 8 -2 8 -15 19 -27 26 -23 11 -23 11 -4 22 15 7 25 6 42 -5 12 -9 29 -14 39
-12 13 3 10 9 -16 25 -26 16 -30 22 -17 27 9 3 27 6 39 6 25 0 66 26 66 42 0
10 -36 7 -74 -8 -16 -6 -18 -4 -14 14 4 12 2 22 -3 22 -13 0 -31 -39 -23 -51
5 -9 -22 -38 -37 -39 -3 0 -4 14 -1 30 2 18 0 30 -7 30 -13 0 -25 -45 -16 -60
6 -10 -20 -39 -37 -40 -4 0 -4 16 -1 36 5 28 3 36 -7 32 -26 -8 -36 -36 -22
-59 11 -18 11 -24 -4 -40 -17 -19 -18 -19 -28 12 -6 18 -17 34 -23 37 -19 5
-17 -53 2 -68 11 -9 12 -17 4 -32 -10 -18 -12 -18 -28 -4 -10 9 -21 16 -24 16
-12 0 -7 -23 8 -40 13 -14 13 -21 -5 -55 -11 -22 -20 -45 -20 -51 0 -8 -21
-13 -55 -16 -55 -3 -72 5 -35 17 33 10 23 23 -23 30 -30 5 -55 2 -81 -9 -50
-21 -49 -21 -31 13 13 26 18 29 54 24 46 -6 102 10 126 37 17 18 16 19 -9 26
-29 7 -88 1 -121 -12 -19 -7 -18 -6 2 27 19 29 29 35 71 40 46 6 102 33 102
49 0 13 -59 20 -86 10 -34 -13 -41 -13 -26 2 14 14 16 32 4 24 -5 -3 -7 8 -4
23 4 32 -24 95 -38 86 -16 -10 -11 -79 6 -104 14 -19 14 -27 4 -49 l-13 -27
-18 40 c-10 22 -19 46 -19 53 0 6 -5 12 -11 12 -12 0 -5 -30 21 -81 11 -22 15
-41 10 -50 -7 -10 -11 -7 -19 13 -11 30 -49 68 -67 68 -21 0 -4 -38 33 -73 31
-31 33 -36 22 -61 l-13 -27 -20 25 c-26 30 -66 44 -66 22 0 -14 39 -51 63 -59
8 -2 6 -16 -7 -45 -21 -46 -31 -52 -41 -22 -7 21 -62 56 -72 46 -8 -8 25 -56
39 -56 6 0 3 10 -8 21 -19 22 -19 22 3 10 26 -13 39 -31 23 -31 -6 0 -8 -5 -4
-12 5 -8 2 -9 -10 -5 -10 4 -68 7 -129 7 l-110 0 24 26 c22 24 28 26 84 20 41
-4 55 -3 45 4 -8 5 -25 10 -37 10 -13 0 -23 5 -23 11 0 6 -6 9 -14 6 -20 -8
-15 43 8 78 26 40 32 22 7 -21 -28 -47 -20 -56 9 -10 12 21 19 44 15 54 -3 11
1 24 10 32 27 22 19 -51 -10 -94 l-25 -37 37 6 c87 15 131 51 53 43 -22 -2
-40 -1 -40 3 0 15 44 43 87 55 29 8 39 13 24 13 -22 1 -23 2 -9 19 9 9 19 37
23 62 6 41 6 44 -9 29 -9 -8 -29 -39 -44 -69 -32 -62 -47 -71 -56 -36 -5 20 3
37 32 76 38 50 68 120 52 120 -4 0 -15 -19 -24 -42 -9 -24 -27 -56 -41 -73
l-24 -30 -1 51 c0 28 5 65 11 83 6 18 9 35 5 38 -12 12 -30 -55 -32 -121 -3
-86 -17 -104 -40 -51 -11 27 -15 58 -12 97 2 32 1 58 -4 58 -14 0 -9 -143 7
-173 14 -27 13 -32 -9 -70 -13 -23 -27 -55 -31 -72 -6 -29 -31 -65 -44 -65 -4
0 -5 19 -3 43 3 28 11 48 25 59 12 10 17 18 10 18 -6 0 -15 -4 -18 -10 -3 -5
-11 -10 -17 -10 -7 0 1 14 17 30 16 17 23 30 16 30 -11 0 -11 3 -1 15 8 9 9
15 2 15 -6 0 -14 -4 -17 -10 -3 -5 -11 -10 -17 -10 -7 0 1 15 18 32 16 18 19
24 6 14 -31 -27 -37 -15 -7 14 14 13 25 28 25 33 0 6 -11 0 -25 -13 -34 -32
-32 -14 3 24 18 21 20 24 4 12 -12 -11 -25 -16 -29 -12 -4 4 6 18 22 31 17 13
25 24 19 25 -6 0 -17 -7 -24 -15 -7 -9 -15 -13 -18 -10 -3 3 8 20 24 37 16 19
19 24 6 14 -32 -27 -39 -12 -8 17 14 13 26 28 26 32 0 5 -11 -2 -24 -14 l-23
-22 -27 31 c-14 18 -26 25 -26 17z m-345 -126 c-3 -12 -11 -19 -16 -16 -5 4
-9 -2 -10 -12 0 -11 -3 -13 -6 -5 -5 14 25 67 34 59 3 -3 2 -15 -2 -26z m828
7 c8 -28 -4 -47 -14 -22 -11 27 -11 44 0 44 5 0 11 -10 14 -22z m-182 -91 c-9
-23 -31 -46 -31 -32 0 12 32 67 36 62 3 -2 0 -16 -5 -30z m-588 3 c-7 -26 -29
-44 -38 -30 -8 13 4 32 16 24 5 -3 9 -2 8 3 -3 15 1 23 10 23 5 0 7 -9 4 -20z
m842 -21 c-44 -20 -90 -25 -80 -8 11 16 46 28 85 28 l35 -1 -40 -19z m-597
-104 c-1 -11 1 -26 6 -33 7 -11 4 -12 -13 -3 -29 16 -48 49 -56 96 l-6 40 36
-40 c21 -23 35 -48 33 -60z m592 6 c0 -16 -57 -32 -101 -29 l-44 3 45 17 c50
18 100 23 100 9z m-740 -69 c0 -5 -10 -18 -23 -30 -21 -20 -24 -20 -24 -5 0
10 4 24 10 31 11 14 37 16 37 4z m690 -36 c-30 -16 -132 -27 -124 -14 10 17
48 27 99 27 47 0 49 0 25 -13z m-437 -55 c349 0 564 -4 576 -10 10 -6 21 -16
24 -23 8 -24 -103 -612 -120 -630 -15 -17 -48 -18 -429 -18 -299 0 -420 3
-439 12 -21 9 -31 9 -47 -1 -11 -7 -24 -9 -28 -4 -4 4 -32 150 -63 323 -67
374 -68 382 -44 362 8 -7 202 -10 570 -11z m-404 -795 c10 -12 8 -17 -8 -25
-27 -15 -29 -14 -23 14 5 28 14 31 31 11z"/>
<path d="M1535 1584 c-59 -39 -122 -103 -151 -151 -28 -48 -31 -49 -53 -29
-30 27 -133 76 -160 76 -49 0 -65 -30 -58 -107 8 -92 31 -153 78 -206 50 -57
106 -81 171 -72 44 6 48 5 57 -17 11 -30 34 -49 47 -40 5 4 15 20 22 36 12 26
15 28 50 20 53 -12 116 -7 151 11 69 35 140 138 161 232 7 28 4 39 -15 61 -23
26 -24 26 -82 14 -98 -20 -93 -23 -93 71 0 128 -38 158 -125 101z m88 -93 c-2
-48 -6 -100 -9 -118 -6 -38 -45 -88 -85 -108 -30 -16 -69 -20 -69 -7 1 17 18
30 74 52 33 13 55 25 48 28 -6 2 -32 -6 -57 -17 -50 -22 -50 -22 -34 13 8 17
28 31 60 42 27 10 49 22 49 26 0 11 -7 10 -41 -8 -17 -8 -33 -13 -36 -11 -11
12 30 68 60 82 29 14 30 15 5 10 l-27 -5 24 42 c25 44 33 70 16 53 -5 -6 -30
-48 -55 -95 -41 -77 -46 -82 -46 -52 0 18 -4 31 -9 28 -5 -3 -7 -23 -4 -44 3
-24 0 -50 -9 -67 l-15 -27 -10 28 c-6 16 -14 38 -18 49 -4 12 -9 15 -12 8 -2
-7 5 -33 16 -58 29 -66 8 -107 -24 -45 -38 73 1 158 112 239 94 69 100 67 96
-38z m-392 -156 c5 -4 9 -10 9 -15 0 -5 -16 0 -35 11 -19 12 -35 17 -35 12 0
-5 17 -17 38 -28 20 -11 56 -37 80 -59 23 -21 42 -34 42 -28 0 5 -7 15 -15 22
-9 8 -16 32 -17 64 l-1 51 -4 -43 -4 -43 -65 85 c-35 47 -64 87 -64 90 0 11
147 -78 178 -108 43 -40 72 -96 72 -139 0 -43 -9 -51 -32 -30 -13 11 -18 30
-18 65 0 26 -4 48 -9 48 -5 0 -7 -18 -4 -39 5 -37 4 -39 -18 -36 -13 1 -44 10
-68 19 -51 19 -54 19 -46 7 3 -5 34 -19 69 -31 72 -24 110 -55 86 -70 -41 -26
-128 10 -167 70 -28 40 -49 112 -58 195 l-7 60 42 -62 c23 -35 46 -65 51 -68z
m593 30 c-3 -11 -20 -51 -37 -88 -35 -78 -88 -131 -145 -146 -39 -11 -98 -6
-107 10 -8 12 36 39 65 40 14 0 34 4 45 9 14 6 4 8 -33 6 l-54 -3 7 34 c4 24
3 33 -4 28 -6 -3 -11 -21 -11 -39 0 -30 -15 -56 -32 -56 -4 0 -8 15 -8 34 0
28 6 39 33 57 17 12 46 37 62 56 24 27 47 39 110 57 99 29 117 29 109 1z
m-367 -277 c-2 -29 -3 -6 -3 52 0 58 1 81 3 53 2 -29 2 -77 0 -105z"/>
<path d="M1725 1315 c-43 -35 -81 -62 -83 -60 -2 2 6 20 18 40 12 20 20 38 17
41 -6 6 -47 -59 -47 -73 0 -6 -9 -22 -21 -37 -11 -14 -16 -26 -10 -26 5 0 13
5 16 10 3 6 25 10 48 11 23 1 53 5 67 10 18 6 10 8 -30 4 l-55 -4 35 27 c41
31 137 122 130 121 -3 0 -41 -29 -85 -64z"/>
<path d="M2177 2115 c-8 -18 11 -31 25 -17 11 11 3 32 -12 32 -4 0 -10 -7 -13
-15z"/>
<path d="M1107 2067 c-3 -8 -2 -20 3 -27 6 -10 11 -10 22 1 12 11 13 16 2 26
-16 16 -21 16 -27 0z"/>
<path d="M1176 2011 c-8 -12 3 -79 13 -86 9 -5 7 83 -2 91 -3 3 -8 1 -11 -5z"/>
<path d="M2394 1919 c-10 -17 13 -36 27 -22 12 12 4 33 -11 33 -5 0 -12 -5
-16 -11z"/>
<path d="M2280 1890 c0 -15 5 -20 18 -18 9 2 17 10 17 18 0 8 -8 16 -17 18
-13 2 -18 -3 -18 -18z"/>
<path d="M431 1846 c-9 -11 -8 -18 5 -31 15 -15 19 -15 32 -1 17 17 10 46 -11
46 -8 0 -20 -6 -26 -14z"/>
<path d="M530 1847 c0 -9 14 -32 31 -52 l31 -35 -28 0 -29 -1 24 -19 c13 -11
35 -20 50 -20 15 0 33 -6 40 -12 11 -11 13 -10 8 4 -3 10 0 29 7 43 14 26 11
65 -4 65 -10 0 -20 -26 -20 -52 0 -15 -7 -10 -32 23 -18 23 -43 49 -55 57 -21
13 -23 13 -23 -1z"/>
<path d="M2312 1834 c-19 -15 -39 -38 -45 -53 l-11 -26 -4 28 c-2 15 -10 27
-18 27 -16 0 -19 -33 -4 -60 7 -13 6 -21 -5 -30 -12 -10 -15 -10 -15 2 0 8 -9
23 -20 33 -19 18 -20 17 -20 -2 0 -11 9 -32 21 -46 14 -19 17 -32 11 -43 -7
-13 -11 -12 -26 10 -9 14 -21 26 -27 26 -13 0 -2 -39 18 -62 18 -21 14 -50 -9
-54 -10 -1 -15 3 -12 11 3 7 -2 15 -10 18 -24 9 -20 -22 5 -49 19 -20 20 -27
10 -55 -14 -40 -14 -82 -1 -74 6 3 10 19 10 35 0 23 8 32 47 51 55 28 72 56
27 45 -16 -4 -33 -12 -39 -18 -7 -7 -2 -8 15 -3 14 4 22 4 18 0 -7 -7 -58 -16
-58 -11 0 2 5 17 11 35 9 25 16 31 40 31 34 0 80 20 73 31 -7 12 -51 11 -75
-1 -22 -12 -24 -7 -9 21 6 10 21 19 33 19 30 1 73 25 59 34 -6 4 -23 4 -37 0
-20 -5 -23 -9 -13 -15 9 -6 9 -9 1 -9 -17 0 -24 15 -17 34 4 10 18 16 41 16
40 0 76 17 67 31 -3 5 -15 7 -26 4 -16 -6 -15 0 11 36 47 64 40 78 -17 33z"/>
<path d="M2427 1853 c-11 -10 -8 -41 4 -49 6 -3 18 1 27 9 13 13 13 19 2 31
-14 17 -23 20 -33 9z"/>
<path d="M698 1750 c-10 -13 -18 -32 -18 -41 0 -14 -7 -17 -31 -14 -17 3 -39
7 -49 10 -10 3 -21 1 -25 -5 -7 -11 52 -40 83 -40 10 0 24 -10 31 -22 11 -22
11 -21 6 6 -4 17 0 37 10 53 9 13 15 36 13 51 l-3 27 -17 -25z"/>
<path d="M344 1698 c8 -69 17 -92 52 -128 13 -14 33 -36 45 -50 l20 -25 -16
34 c-10 20 -15 45 -11 61 7 40 -8 84 -44 130 -45 56 -54 52 -46 -22z m31 3
c-3 -10 3 -38 14 -62 23 -52 28 -38 5 16 -20 48 -10 58 12 12 10 -22 14 -45
10 -61 -8 -33 -23 -25 -42 20 -17 39 -19 108 -4 99 6 -4 8 -15 5 -24z"/>
<path d="M2506 1725 c-37 -48 -59 -103 -53 -134 3 -14 -2 -39 -10 -54 -18 -36
-11 -46 10 -14 8 13 29 37 45 54 32 31 52 86 52 140 0 46 -14 48 -44 8z m20
-44 c-3 -56 -33 -113 -47 -90 -15 24 -10 54 18 97 15 23 29 42 30 42 1 0 1
-22 -1 -49z"/>
<path d="M2496 1654 c-10 -25 -16 -47 -13 -50 3 -3 13 15 22 41 23 59 15 67
-9 9z"/>
<path d="M2405 1741 c-8 -15 3 -31 21 -31 9 0 14 7 12 17 -4 20 -24 28 -33 14z"/>
<path d="M733 1688 c-6 -7 -16 -30 -22 -51 -12 -35 -14 -36 -34 -22 -23 16
-67 20 -67 7 0 -11 38 -29 77 -37 23 -5 34 -14 42 -36 l10 -30 -27 19 c-34 24
-72 37 -72 23 0 -12 47 -46 77 -55 17 -6 25 -18 29 -47 4 -21 10 -39 15 -39
11 0 11 -1 -2 59 -10 46 -9 53 10 77 22 29 28 64 10 64 -6 0 -16 -13 -22 -30
-6 -16 -14 -30 -18 -30 -14 0 -16 39 -4 57 30 43 27 108 -2 71z"/>
<path d="M475 1608 c-8 -29 -13 -72 -11 -94 3 -39 1 -42 -20 -39 -13 1 -35 10
-49 19 -15 10 -29 15 -32 12 -3 -2 17 -16 44 -31 47 -25 47 -26 13 -20 -40 6
-95 54 -81 68 7 7 28 1 60 -15 47 -23 53 -11 7 14 -29 16 -95 27 -102 17 -2
-4 15 -29 39 -54 41 -43 46 -45 98 -45 48 0 59 -4 84 -30 l29 -30 -35 -7 -34
-7 30 -7 c30 -7 30 -7 -6 -8 -45 -1 -101 18 -93 31 4 6 28 8 63 4 38 -4 51 -3
41 4 -19 12 -150 13 -150 1 0 -5 21 -19 46 -31 37 -18 57 -22 107 -18 62 5 63
5 112 -38 55 -49 54 -54 -5 -24 -43 22 -180 29 -180 9 0 -5 25 -22 55 -35 48
-22 63 -25 108 -18 29 5 57 9 63 9 12 0 94 -91 94 -105 0 -5 -16 1 -35 14 -39
27 -122 43 -138 27 -6 -6 6 -20 39 -40 36 -24 60 -31 96 -31 47 0 48 0 73 -50
28 -56 26 -61 -16 -26 -32 28 -135 54 -151 38 -16 -16 86 -73 143 -81 48 -6
52 -8 64 -43 7 -21 8 -38 3 -38 -5 0 -7 -4 -4 -8 11 -18 -61 -5 -97 17 -20 12
-37 24 -37 25 0 8 68 -2 85 -12 19 -12 18 -12 -5 -6 -14 4 -32 9 -40 12 -29
10 -4 -6 33 -22 23 -9 35 -11 31 -4 -5 8 -1 9 12 5 15 -6 15 -3 -4 13 -36 30
-142 54 -142 32 0 -25 85 -77 147 -90 l38 -8 3 -59 c2 -33 8 -64 14 -70 7 -7
9 13 4 69 -5 60 -2 89 11 125 10 28 13 56 9 67 -7 19 -8 19 -22 0 -8 -11 -14
-28 -14 -39 0 -30 -17 -10 -24 28 -5 27 -2 41 15 64 19 26 21 39 17 101 -3 39
-10 76 -15 81 -14 14 -53 -67 -54 -112 l0 -34 -20 44 c-20 45 -20 45 1 92 21
50 29 169 10 169 -5 0 -22 -19 -37 -42 -21 -31 -28 -54 -28 -89 l0 -48 -22 27
c-26 32 -27 39 -8 72 17 30 19 86 4 129 -14 40 -22 39 -42 -6 -25 -59 -28 -78
-18 -104 8 -21 10 -18 11 21 1 63 20 90 20 29 0 -25 -6 -53 -13 -63 -11 -16
-14 -15 -40 12 -24 25 -26 32 -17 56 15 41 12 86 -11 136 -15 34 -22 41 -28
30 -14 -25 -20 -104 -11 -125 6 -15 9 -7 9 32 1 58 17 79 27 36 3 -15 8 -35
10 -44 2 -9 0 -27 -5 -40 -8 -20 -10 -13 -12 36 -1 33 -4 47 -6 30 -2 -16 -6
-45 -9 -62 l-5 -33 -31 36 c-29 33 -30 37 -19 73 6 21 11 51 11 67 0 39 -19
104 -30 104 -5 0 -16 -24 -25 -52z m39 -26 c4 -20 2 -50 -3 -67 -8 -27 -9 -25
-12 25 l-2 55 -6 -55 c-5 -45 -7 -50 -11 -25 -7 37 8 117 20 110 4 -3 11 -22
14 -43z m189 -207 c0 -25 -4 -50 -9 -55 -5 -5 -9 16 -9 55 0 39 4 60 9 55 5
-5 9 -30 9 -55z m94 -70 c-3 -29 -10 -62 -17 -72 -8 -14 -9 -8 -3 27 4 25 7
57 7 73 -1 15 3 27 9 27 6 0 8 -21 4 -55z m-31 -36 c-14 -60 -14 -62 -15 -22
-1 40 15 100 24 91 3 -2 -2 -33 -9 -69z m-166 10 c17 -5 7 -7 -35 -4 l-60 4
65 -13 65 -14 -47 -1 c-47 -1 -98 15 -98 31 0 10 77 9 110 -3z m267 -173 c-3
-21 -11 -44 -17 -50 -9 -8 -10 -5 -6 14 14 68 16 105 7 90 -6 -8 -11 -32 -11
-52 0 -20 -5 -40 -11 -44 -15 -9 -7 78 11 121 l13 30 9 -35 c6 -19 8 -52 5
-74z m-162 50 c36 -15 47 -36 20 -36 -22 0 -81 26 -89 39 -10 16 28 14 69 -3z
m42 -111 c20 -8 34 -18 30 -21 -3 -3 -19 2 -35 10 -17 9 -38 13 -46 10 -9 -3
-16 -1 -16 5 0 15 24 14 67 -4z m4 -25 c24 -11 38 -20 31 -20 -16 0 -82 27
-82 34 0 9 4 8 51 -14z"/>
<path d="M2371 1629 c-15 -44 -14 -103 4 -145 15 -37 11 -59 -19 -83 -14 -12
-15 -10 -5 17 11 33 -5 142 -21 142 -5 0 -16 -20 -26 -45 -13 -34 -15 -60 -10
-108 6 -58 4 -65 -18 -86 l-24 -23 5 41 c6 47 -21 131 -42 131 -27 0 -34 -127
-9 -170 16 -26 16 -29 -7 -60 l-24 -32 -5 54 c-6 52 -14 73 -45 113 -42 53
-49 -81 -9 -155 24 -45 25 -51 13 -87 l-13 -38 -12 50 c-23 97 -34 107 -52 46
-16 -51 -14 -110 3 -141 18 -32 18 -52 0 -97 -16 -38 -28 -36 -39 7 -5 21 -3
20 9 -5 8 -18 14 -23 15 -13 0 28 -19 70 -30 63 -16 -10 -12 -57 8 -90 12 -21
16 -39 11 -60 -4 -16 -7 -52 -8 -80 -2 -70 17 -44 21 29 l3 60 49 12 c53 14
140 63 138 79 -3 27 -104 9 -144 -26 l-23 -20 42 21 c46 22 69 25 78 10 6 -10
-64 -50 -88 -50 -29 0 -40 26 -27 65 11 33 14 35 58 35 50 0 137 35 161 63 12
15 9 17 -37 17 -36 0 -66 -8 -106 -29 -31 -17 -56 -28 -56 -25 0 3 9 23 20 44
19 37 24 40 61 40 50 0 97 20 128 54 l24 26 -37 0 c-40 0 -100 -22 -128 -47
-38 -34 -13 20 37 80 30 35 30 35 80 26 28 -5 66 -7 86 -4 40 7 99 39 99 55 0
18 -131 11 -177 -10 -24 -10 -43 -17 -43 -14 0 2 19 21 41 41 40 36 45 38 100
35 57 -4 137 21 153 47 9 13 -118 14 -149 1 -13 -6 0 -7 36 -3 68 7 88 -11 32
-26 -21 -6 -49 -10 -63 -10 -17 1 -8 6 25 15 l50 14 -43 -5 c-55 -7 -66 0 -47
29 12 17 28 25 65 29 77 9 131 47 142 98 7 30 -102 1 -132 -36 -8 -10 5 -6 38
11 54 28 79 26 62 -5 -11 -22 -74 -54 -97 -49 -18 3 -23 20 -28 91 -4 54 -23
117 -35 117 -4 0 -13 -14 -19 -31z m35 -76 c1 -32 -1 -42 -3 -23 -7 55 -21 58
-16 3 3 -36 2 -44 -6 -33 -12 17 -14 53 -5 99 10 49 27 21 30 -46z m-66 -86
c0 -29 -4 -58 -9 -66 -6 -9 -8 9 -6 50 l4 64 -9 -59 c-11 -68 -20 -84 -20 -35
0 47 19 111 31 104 5 -4 9 -30 9 -58z m-99 -67 c7 -23 8 -50 4 -67 -8 -25 -9
-23 -16 27 -4 30 -10 64 -15 74 -5 13 -4 17 4 12 6 -4 17 -24 23 -46z m-22
-55 c0 -31 -2 -36 -9 -20 -13 29 -13 94 0 75 5 -8 9 -33 9 -55z m-73 -31 c8
-18 14 -50 13 -71 -1 -35 -2 -33 -20 27 -14 48 -17 55 -14 25 3 -22 8 -51 11
-65 l5 -25 -15 25 c-10 16 -15 44 -13 77 2 56 12 58 33 7z m271 -41 c-11 -11
-36 -17 -79 -19 l-63 -3 70 14 70 14 -60 -4 c-40 -3 -53 -1 -40 5 11 5 42 9
70 9 46 1 48 0 32 -16z m-329 -163 l-1 -55 -7 60 -7 60 -2 -60 c-2 -51 -4 -56
-12 -35 -10 24 -5 92 8 113 11 18 22 -25 21 -83z m182 50 c-8 -5 -11 -10 -5
-10 20 0 -14 -22 -47 -29 -26 -6 -35 -5 -35 5 0 8 1 14 1 14 1 0 19 7 41 15
47 16 66 19 45 5z m-20 -110 c0 -12 -45 -35 -85 -43 -26 -6 -25 -4 10 13 35
17 22 18 -25 2 -30 -10 2 13 33 25 40 14 67 16 67 3z"/>
<path d="M2490 1489 c-30 -16 -44 -27 -31 -23 24 6 91 43 91 50 0 6 0 6 -60
-27z"/>
<path d="M340 1330 c0 -15 5 -20 18 -18 9 2 17 10 17 18 0 8 -8 16 -17 18 -13
2 -18 -3 -18 -18z"/>
<path d="M380 1217 c0 -26 7 -62 16 -78 21 -42 28 -31 9 14 -8 20 -15 46 -15
58 0 18 2 19 15 9 8 -7 13 -16 10 -20 -3 -4 2 -28 9 -54 8 -25 10 -44 6 -41
-5 3 -10 0 -12 -5 -2 -7 -16 -6 -40 4 -45 19 -58 5 -21 -23 25 -21 38 -25 96
-34 27 -4 36 6 17 18 -5 3 -10 31 -10 61 0 50 -3 58 -40 97 l-39 42 -1 -48z
m65 -67 c7 -42 -8 -21 -19 25 -5 21 -4 27 3 20 6 -6 13 -26 16 -45z m-25 -65
c5 3 11 1 14 -4 12 -18 -14 -22 -44 -6 -37 19 -39 28 -4 15 14 -6 29 -8 34 -5z"/>
<path d="M2491 1225 c-26 -30 -31 -44 -31 -89 0 -39 -5 -60 -20 -77 l-19 -24
-1 40 c-1 85 -25 115 -36 45 -4 -22 -11 -43 -15 -46 -13 -7 -11 -61 2 -82 9
-14 6 -27 -12 -63 l-24 -44 -3 73 c-3 81 -20 94 -37 28 -7 -32 -6 -45 11 -75
16 -30 18 -43 10 -67 l-9 -29 -11 44 c-13 54 -36 67 -36 21 0 -17 7 -44 15
-60 13 -25 13 -34 0 -69 -8 -23 -10 -43 -5 -46 5 -3 12 11 16 30 8 47 28 65
69 65 36 0 95 41 95 66 0 12 -8 13 -37 8 -41 -7 -77 -23 -70 -30 2 -3 16 0 31
6 15 5 35 10 44 10 14 0 14 -3 -3 -19 -23 -22 -72 -40 -61 -22 4 7 1 9 -8 5
-11 -4 -14 1 -11 21 4 37 21 50 88 69 32 9 55 21 52 26 -8 13 -47 13 -81 0
-25 -10 -26 -9 -13 7 25 33 43 43 79 43 20 0 45 7 56 16 18 14 15 15 -39 11
l-57 -4 22 24 c14 15 33 23 54 23 33 0 96 42 83 55 -4 3 -25 -2 -48 -11 -46
-18 -50 -31 -5 -14 27 9 28 9 10 -5 -11 -8 -25 -15 -32 -15 -18 0 -27 17 -13
26 32 19 67 164 40 164 -5 0 -23 -16 -40 -35z m32 -27 c-3 -18 -12 -46 -20
-62 -12 -22 -17 -26 -24 -15 -12 20 -11 56 2 65 8 4 9 -4 5 -27 -5 -30 -5 -31
4 -10 6 14 8 31 5 39 -6 15 11 42 26 42 5 0 6 -15 2 -32z m-113 -130 c0 -24
-4 -49 -9 -57 -12 -18 -31 -5 -31 22 0 18 2 19 10 7 7 -11 10 -4 10 28 0 23 5
42 10 42 6 0 10 -19 10 -42z"/>
<path d="M505 1148 c-13 -40 -21 -118 -12 -133 8 -14 6 -15 -11 -6 -25 13 -92
15 -92 2 0 -9 15 -13 92 -27 35 -6 50 -21 53 -55 2 -15 -2 -15 -29 -7 -44 15
-47 21 -6 14 26 -5 31 -4 20 3 -19 13 -93 14 -85 2 3 -5 34 -19 69 -31 35 -11
67 -28 70 -37 9 -21 1 -27 -21 -15 -28 14 -82 22 -87 13 -11 -17 54 -65 96
-70 41 -6 44 -8 58 -54 9 -27 18 -45 22 -42 4 4 1 26 -6 49 -11 37 -11 46 6
76 19 37 24 80 8 80 -13 0 -30 -34 -30 -59 0 -12 -4 -21 -9 -21 -18 0 -22 39
-7 69 18 33 21 98 6 121 -14 23 -21 7 -27 -61 l-6 -62 -19 37 c-16 32 -17 43
-8 72 10 29 9 41 -4 68 -9 19 -16 46 -16 60 0 27 -17 36 -25 14z m16 -113 l-5
-30 -6 30 c-3 17 -3 46 -1 65 l5 35 6 -35 c3 -19 3 -48 1 -65z m30 -192 c32
-12 38 -18 26 -25 -18 -10 -57 3 -76 26 -17 21 -3 21 50 -1z"/>
<path d="M334 909 c-10 -17 13 -36 27 -22 12 12 4 33 -11 33 -5 0 -12 -5 -16
-11z"/>
<path d="M2522 903 c4 -21 33 -25 33 -3 0 8 -8 16 -18 18 -14 3 -18 -1 -15
-15z"/>
<path d="M393 858 c-4 -7 -7 -37 -6 -67 0 -52 0 -53 -14 -28 -13 25 -89 74
-100 64 -6 -7 15 -47 40 -74 11 -12 34 -27 52 -33 18 -6 37 -22 44 -37 6 -14
14 -23 17 -20 3 3 1 14 -5 24 -7 13 -7 32 0 60 8 28 7 52 -1 81 -12 45 -15 49
-27 30z m-34 -91 c9 -11 9 -17 1 -22 -12 -8 -46 19 -62 48 -9 17 -8 17 20 3
15 -8 34 -21 41 -29z"/>
<path d="M693 823 c-4 -21 -8 -63 -8 -94 l0 -55 -52 4 c-29 3 -53 2 -53 -2 0
-4 11 -29 25 -56 24 -47 64 -80 99 -80 8 0 28 -11 43 -25 l28 -24 -50 18 c-27
10 -59 22 -70 27 -17 7 -18 6 -7 -8 7 -9 36 -22 64 -29 56 -15 88 -47 88 -88
l0 -26 -19 31 c-19 31 -41 52 -41 39 0 -4 14 -26 30 -50 23 -33 30 -55 30 -89
l0 -46 -45 0 c-48 0 -52 4 -30 34 30 40 8 147 -39 185 -13 11 -17 9 -27 -15
-14 -37 -15 -126 -2 -149 8 -13 9 1 6 51 -5 80 8 111 32 79 27 -34 39 -89 27
-121 l-10 -29 -2 35 c-4 67 -18 89 -16 26 1 -48 -2 -59 -16 -61 -29 -5 -46 27
-50 97 -3 57 -9 73 -35 105 -16 21 -34 36 -39 33 -5 -3 -9 -33 -9 -68 0 -58
-1 -61 -11 -35 -19 45 -19 55 0 111 17 51 17 56 1 98 -9 24 -20 44 -25 44 -11
0 -19 -40 -22 -111 -3 -53 -13 -67 -34 -46 -11 10 -26 8 -19 -2 9 -15 -12 -22
-42 -15 l-28 7 34 12 34 11 -43 13 c-23 7 -44 10 -47 8 -2 -3 11 -8 29 -12 32
-7 32 -8 10 -16 -18 -7 -30 -4 -49 11 l-25 19 27 7 c19 5 45 0 79 -14 48 -20
50 -20 28 -2 -28 24 -83 40 -135 40 -35 0 -37 -2 -27 -20 21 -39 89 -75 154
-80 52 -4 62 -9 73 -30 15 -31 11 -35 -19 -17 -12 8 -45 18 -72 22 l-48 7 18
-33 c30 -50 70 -71 126 -64 40 5 49 3 58 -15 9 -17 7 -22 -12 -30 l-23 -9 25
-1 c23 -1 23 -2 5 -10 -11 -5 -36 -8 -55 -8 -32 0 -33 1 -10 8 l25 8 -25 2
c-18 2 -11 6 25 15 46 12 47 13 15 13 -41 1 -102 -20 -107 -35 -8 -23 101 -30
150 -9 31 12 35 12 67 -16 l35 -30 -52 4 c-29 3 -53 1 -53 -3 0 -5 394 -9 876
-9 481 0 873 4 870 8 -3 5 -31 7 -63 5 l-58 -5 30 26 c22 19 37 24 55 20 56
-13 117 -15 145 -4 l30 12 -40 19 c-23 11 -56 18 -77 16 -21 -1 -38 1 -38 5 0
15 28 23 78 19 50 -3 55 -1 87 34 37 38 47 72 19 61 -9 -3 -28 -6 -44 -6 -15
0 -38 -9 -51 -20 l-24 -20 37 15 c21 8 47 15 59 15 20 0 20 -1 6 -22 -8 -13
-22 -22 -31 -22 -9 1 -14 -1 -12 -5 2 -3 -9 -6 -24 -6 -16 0 -26 2 -24 4 2 2
-1 10 -7 17 -7 9 -7 19 2 36 17 32 28 38 79 38 28 0 58 8 80 21 41 25 80 59
80 71 0 21 -122 0 -167 -29 -36 -24 -22 -25 22 -3 42 21 72 25 94 11 24 -16
-29 -35 -96 -36 l-63 -1 24 40 c21 35 31 42 68 48 33 6 52 18 83 50 45 48 36
59 -30 34 -61 -24 -76 -44 -30 -40 36 2 38 -8 5 -26 -16 -9 -18 -8 -14 5 5 13
1 15 -20 11 -48 -9 -21 31 53 77 36 23 78 83 67 95 -12 11 -75 -30 -96 -62
l-21 -31 7 28 c8 37 -4 99 -19 94 -8 -2 -12 -31 -13 -78 -2 -106 -3 -109 -18
-109 -9 0 -12 7 -9 20 7 26 -5 90 -17 90 -6 0 -9 -24 -9 -52 2 -48 2 -50 9
-18 5 26 6 15 6 -40 l1 -75 -15 58 c-8 31 -18 57 -24 57 -15 0 -48 -82 -48
-121 0 -28 -6 -41 -25 -53 -43 -28 -65 -75 -65 -138 0 -58 -7 -88 -19 -88 -4
0 -5 27 -3 60 5 65 -3 110 -19 110 -5 0 -19 -21 -31 -47 -16 -36 -19 -59 -15
-105 l5 -58 -34 0 c-34 0 -34 1 -34 44 0 34 8 56 34 95 37 55 32 72 -5 19 -26
-36 -37 -22 -19 23 10 23 23 32 65 44 28 9 60 23 71 31 19 15 19 15 -1 9 -11
-4 -39 -13 -63 -21 -41 -13 -42 -12 -32 6 6 11 20 20 31 20 47 0 88 28 113 79
15 28 26 53 26 57 0 4 -24 4 -54 2 l-55 -5 6 28 c6 32 -15 159 -27 159 -14 0
-70 -70 -76 -95 -3 -14 -3 -38 0 -53 16 -61 18 -83 12 -107 -11 -42 -24 -28
-34 38 l-9 62 -2 -50 c-1 -41 -4 -47 -12 -32 -11 19 -8 71 6 116 6 17 5 22 -3
17 -17 -11 -35 -81 -28 -110 3 -14 19 -40 34 -58 22 -27 27 -40 22 -67 l-5
-34 -18 41 c-10 23 -32 53 -50 68 l-32 27 -3 -59 c-4 -73 18 -133 64 -173 29
-26 34 -37 34 -75 l0 -45 -122 0 -123 0 41 18 c118 53 124 225 10 280 -53 26
-89 26 -141 1 -80 -38 -111 -149 -62 -221 12 -19 42 -44 66 -56 l44 -22 -172
0 -171 -1 -6 25 c-14 57 61 125 139 125 l38 0 -15 -27 c-22 -42 -58 -72 -96
-79 l-35 -6 25 24 c14 13 39 33 55 45 17 12 25 23 18 23 -6 0 -25 -11 -41 -25
-35 -30 -43 -31 -37 -8 3 10 -1 4 -10 -14 -8 -17 -19 -34 -25 -38 -42 -26 51
-24 102 2 28 13 68 78 68 108 0 12 -8 14 -42 9 -71 -10 -107 -24 -128 -51
l-20 -26 0 27 c0 17 7 29 18 32 110 36 153 66 186 131 25 49 22 53 -46 53 -78
0 -122 -24 -147 -81 l-18 -40 -12 29 c-7 16 -26 42 -42 58 -26 24 -39 29 -99
32 -82 5 -87 -3 -45 -74 28 -48 66 -74 143 -99 44 -14 52 -20 52 -42 l0 -25
-35 30 c-19 17 -51 34 -72 37 -21 4 -50 9 -65 11 -34 7 -34 6 -6 -52 24 -52
68 -84 114 -84 17 0 37 -7 44 -15 11 -13 -8 -15 -161 -15 l-173 0 44 22 c57
30 82 65 87 125 7 72 -23 128 -84 155 -79 35 -149 13 -201 -63 -20 -28 -23
-43 -20 -87 6 -64 29 -99 88 -129 l44 -23 -122 0 -122 0 0 43 c0 36 6 49 35
77 46 45 67 101 63 174 l-3 59 -31 -26 c-18 -15 -41 -45 -52 -67 l-20 -40 -5
32 c-3 26 2 40 23 65 40 45 46 83 21 135 -12 24 -18 32 -15 18 14 -59 16 -81
8 -107 -7 -25 -9 -23 -14 22 l-6 50 -8 -62 c-5 -35 -12 -63 -16 -63 -21 0 -27
74 -9 114 17 36 3 91 -33 131 -16 19 -34 35 -39 35 -4 0 -12 -17 -16 -37z m63
-34 c16 -31 19 -99 4 -99 -5 0 -12 16 -16 35 -3 19 -10 38 -15 41 -13 8 -11
-7 11 -71 11 -32 20 -60 20 -62 0 -3 -13 5 -30 17 -26 19 -30 28 -30 68 0 26
3 64 6 85 6 31 9 35 21 25 8 -6 21 -24 29 -39z m1453 -60 c1 -50 -2 -57 -29
-77 l-29 -22 15 48 c24 80 27 92 16 92 -6 0 -13 -18 -17 -40 -7 -44 -20 -52
-28 -18 -7 24 15 83 41 111 17 19 17 18 23 -9 4 -16 7 -54 8 -85z m281 34 c-7
-24 -8 -21 -9 22 0 38 2 45 9 28 5 -12 5 -34 0 -50z m88 8 c-6 -10 -18 -23
-27 -28 -26 -16 -25 23 1 41 26 19 41 11 26 -13z m4 -83 c-11 -11 -62 -21 -62
-12 0 6 41 23 60 23 11 1 11 -2 2 -11z m-167 -60 c8 -47 -1 -79 -21 -71 -8 3
-14 -1 -14 -8 0 -9 -4 -7 -11 4 -12 20 -5 72 13 113 14 29 24 17 33 -38z
m-1704 16 c14 -7 33 -24 42 -37 15 -24 41 -106 35 -112 -2 -2 -25 25 -51 61
-42 57 -107 109 -107 86 0 -5 12 -15 26 -22 22 -12 73 -70 61 -70 -30 0 -71
29 -92 64 -14 24 -25 46 -25 50 0 11 80 -4 111 -20z m1580 -11 c-22 -44 -46
-68 -79 -78 -23 -7 -23 -6 -8 17 9 13 30 34 47 47 17 12 28 25 25 28 -10 11
-70 -42 -113 -101 l-46 -61 7 40 c15 78 50 119 119 135 67 16 70 15 48 -27z
m-1762 -40 c1 -39 -8 -65 -20 -57 -11 6 -12 107 -2 118 10 10 21 -22 22 -61z
m367 -55 c-8 -67 -35 -135 -36 -90 0 13 5 33 11 44 9 16 8 19 -3 16 -8 -3 -14
-23 -16 -50 -2 -30 -10 -52 -23 -63 -19 -18 -19 -17 -19 24 0 23 7 58 15 78
16 38 61 103 72 103 3 0 2 -28 -1 -62z m1179 -21 c15 -32 25 -68 25 -96 0 -43
0 -44 -20 -26 -12 11 -20 31 -20 51 0 38 -9 64 -21 64 -5 0 -4 -12 1 -26 16
-41 12 -64 -6 -32 -8 15 -17 56 -21 90 l-6 63 21 -19 c12 -10 33 -41 47 -69z
m-716 55 c40 -20 67 -54 77 -97 l7 -30 -22 19 c-12 11 -21 31 -21 47 0 15 -5
31 -10 34 -7 4 -8 -3 -4 -22 l7 -28 -29 26 c-40 36 -84 63 -84 52 0 -5 12 -16
28 -23 25 -12 26 -13 7 -20 -18 -7 -16 -9 12 -15 18 -4 38 -14 45 -23 11 -13
9 -15 -14 -10 -16 3 -28 1 -28 -3 0 -5 15 -9 33 -9 22 0 41 -8 53 -21 19 -22
19 -22 -6 -14 -67 19 -111 48 -135 89 -14 24 -25 48 -25 54 0 18 70 14 109 -6z
m301 5 c0 -33 -63 -99 -116 -124 -65 -30 -89 -25 -79 15 11 46 38 84 75 103
41 23 120 26 120 6z m-513 -54 c28 -18 48 -81 39 -119 -12 -45 -68 -94 -109
-94 -58 0 -117 63 -117 125 0 51 31 89 90 109 21 7 71 -4 97 -21z m765 -11
c53 -50 46 -130 -17 -178 -43 -33 -82 -31 -127 6 -59 49 -64 127 -12 175 45
42 110 40 156 -3z m448 -65 c-11 -29 -18 -41 -16 -27 3 14 6 50 6 80 1 55 1
55 16 27 14 -26 13 -32 -6 -80z m-29 -28 c-6 -20 -18 -42 -25 -48 -12 -10 -14
-6 -12 31 2 24 7 52 10 63 7 18 6 18 -4 2 -6 -9 -15 -36 -20 -60 l-9 -42 3 47
c2 34 12 59 32 85 l29 38 3 -40 c2 -22 -1 -56 -7 -76z m-1761 46 c2 11 3 26 3
33 -1 21 6 14 27 -28 24 -46 26 -83 6 -99 -23 -19 -49 30 -52 97 -2 52 -2 53
5 17 5 -24 9 -32 11 -20z m-94 -20 c39 -16 38 -30 -1 -37 -13 -3 -22 -1 -19 4
3 5 -2 8 -11 6 -9 -2 -24 7 -32 20 -14 21 -14 22 6 22 12 0 38 -7 57 -15z
m1752 -78 c-3 -57 -5 -65 -15 -50 -7 9 -14 24 -14 32 -1 9 -5 3 -10 -14 -7
-24 -8 -20 -4 20 2 28 9 63 16 78 19 41 30 14 27 -66z m-865 39 c42 -17 74
-53 82 -91 l7 -30 -21 25 c-12 14 -24 35 -27 48 -3 12 -10 22 -15 22 -5 0 -5
-8 -2 -17 5 -13 -3 -10 -31 11 -20 15 -39 26 -42 23 -3 -2 14 -19 38 -38 65
-50 67 -52 28 -44 -39 8 -75 37 -96 78 -14 27 -14 27 16 27 17 0 45 -6 63 -14z
m1027 -66 l25 -8 -25 -2 -25 -2 25 -9 c19 -7 14 -8 -23 -5 -52 4 -63 9 -52 25
7 12 38 13 75 1z"/>
<path d="M1566 539 c-26 -23 -45 -44 -42 -47 3 -3 11 0 18 5 7 6 27 15 43 21
22 8 25 11 10 11 -18 1 -16 4 10 26 17 13 25 24 19 25 -6 0 -32 -19 -58 -41z"/>
<path d="M1510 531 c-5 -11 -10 -29 -10 -40 0 -12 -4 -21 -9 -21 -5 0 -12 -8
-15 -17 -6 -16 -6 -16 12 0 10 9 33 17 50 17 17 0 33 4 36 8 3 5 -8 7 -23 4
-35 -5 -44 8 -31 42 11 30 5 35 -10 7z"/>
<path d="M2320 510 c-1 -3 -3 -27 -5 -55 -3 -46 -2 -47 7 -16 7 27 6 89 -2 71z"/>
<path d="M587 455 c4 -16 7 -42 7 -57 1 -17 5 -23 10 -18 6 6 3 28 -7 57 -9
27 -14 35 -10 18z"/>
<path d="M447 774 c-4 -4 -7 -29 -7 -55 0 -72 -6 -81 -37 -53 -28 26 -105 58
-124 52 -8 -3 1 -19 25 -46 27 -29 49 -43 74 -48 62 -10 67 -13 80 -46 15 -41
26 -31 11 11 -9 24 -9 39 0 57 6 14 11 42 11 63 0 38 -20 78 -33 65z m23 -69
c0 -19 -4 -37 -10 -40 -6 -4 -10 12 -10 40 0 28 4 44 10 40 6 -3 10 -21 10
-40z m-110 -25 c39 -20 55 -35 25 -24 -8 4 -15 2 -15 -4 0 -6 6 -13 13 -15 9
-4 9 -6 -1 -6 -7 -1 -29 15 -50 34 -42 39 -31 45 28 15z"/>
<path d="M671 403 c1 -21 5 -51 9 -68 5 -21 7 -10 6 37 -1 37 -4 68 -8 68 -5
0 -7 -17 -7 -37z"/>
<path d="M333 374 c-8 -21 13 -42 28 -27 13 13 5 43 -11 43 -6 0 -13 -7 -17
-16z"/>
<path d="M2521 376 c-14 -17 -7 -36 14 -36 22 0 29 20 13 36 -13 13 -16 13
-27 0z"/>
<path d="M2005 330 c-8 -14 3 -30 21 -30 8 0 14 9 14 20 0 21 -24 28 -35 10z"/>
<path d="M433 268 c-2 -5 21 -8 51 -8 31 0 56 3 56 8 0 4 -23 7 -51 7 -28 0
-53 -3 -56 -7z"/>
<path d="M2415 270 l-70 -6 88 -2 c52 -1 87 2 87 8 0 6 -8 9 -17 8 -10 -1 -49
-4 -88 -8z"/>
<path d="M1081 135 c7 -6 320 -8 326 -1 4 3 -69 6 -162 6 -93 0 -166 -2 -164
-5z"/>
<path d="M1521 135 c7 -6 370 -8 376 -1 4 3 -81 6 -187 6 -106 0 -191 -2 -189
-5z"/>
</g>
</svg>
