<svg width="179" height="232" viewBox="0 0 179 232" fill="none" xmlns="http://www.w3.org/2000/svg">
<path d="M105 64.0002C89.5 165.5 85.107 171.283 25 230.5" stroke="black" stroke-width="2" stroke-linecap="round"/>
<path d="M133.474 127.759C153.453 115.18 159.172 109.095 165.586 98.9107C149.642 99.4554 140.611 100.657 123.918 108.379C117.325 120.067 110.637 125.941 92.3935 135C112.483 133.797 123.04 132.839 133.474 127.759Z" stroke="black" stroke-width="2" stroke-linecap="round"/>
<path d="M144.201 91.9434C161.872 76.1441 166.195 68.5611 170.047 55.9151C153.132 56.8242 143.815 58.4391 128.224 68.2039C124.625 82.7056 119.202 90.0432 102.346 101.478C123.507 99.697 134.53 98.3589 144.201 91.9434Z" stroke="black" stroke-width="2" stroke-linecap="round"/>
<path d="M140.498 44.5587C154.79 25.7791 158.064 18.1402 160.63 6.51067C146.102 12.8459 138.166 17.248 125.308 30.3979C123.071 43.4636 118.833 51.2651 104.984 66.2012C123.121 57.7481 132.544 53.009 140.498 44.5587Z" stroke="black" stroke-width="2" stroke-linecap="round"/>
<path d="M97.74 49.1057C89.8837 42.4854 86.5536 40.9581 81.3558 39.7434C83.4921 46.4329 85.0909 50.0902 90.4412 56.0345C96.3151 57.1029 99.6688 59.0728 105.786 65.4778C102.869 57.1248 101.194 52.784 97.74 49.1057Z" stroke="black" stroke-width="2" stroke-linecap="round"/>
<path d="M87.1911 89.8603C77.3095 82.2035 72.832 80.7799 65.5793 80.2235C67.1619 89.271 68.651 94.1201 75.0561 101.38C83.3211 101.575 87.7327 103.624 95.1441 111.367C92.8072 100.126 91.3627 94.3202 87.1911 89.8603Z" stroke="black" stroke-width="2" stroke-linecap="round"/>
<path d="M126.757 161.348C149.945 156.89 157.486 153.27 167.165 146.039C152.114 140.637 143.263 138.42 124.904 139.514C114.51 148.098 106.143 151.159 85.8519 152.939C105.005 159.258 115.188 162.271 126.757 161.348Z" stroke="black" stroke-width="2" stroke-linecap="round"/>
<path d="M45.0863 144.665C21.9469 140.311 13.8574 140.304 2.80217 141.975C15.6653 150.189 23.4788 154.397 41.1667 159.427C53.2509 157.101 61.9779 157.729 81.6749 162.917C65.1617 152.824 56.292 147.683 45.0863 144.665Z" stroke="black" stroke-width="2" stroke-linecap="round"/>
<path d="M105.075 184.137C122.786 183.447 128.749 181.88 136.645 178.27C125.928 173.586 119.535 171.425 105.741 170.464C97.1849 174.847 90.6583 175.995 75.3596 175.286C89.0505 180.904 96.362 183.676 105.075 184.137Z" stroke="black" stroke-width="2" stroke-linecap="round"/>
<path d="M98.7735 213.106C122.067 216.82 130.307 216.19 141.675 213.193C129.095 203.759 121.403 199.023 103.706 194.02C91.2482 197.931 82.3985 197.821 62.6645 192.775C78.8432 204.311 87.551 210.151 98.7735 213.106Z" stroke="black" stroke-width="2" stroke-linecap="round"/>
<path d="M158.767 8.33557C154.425 12.9325 148.17 15.5694 143.451 19.8021C141.615 21.4485 139.003 23.0881 138.029 25.4675C137.188 27.5239 137.348 29.7898 136.62 31.892C134.327 38.5043 128.591 44.1959 123.31 48.6174C121.923 49.7786 120.555 51.0108 119.081 52.0601C117.909 52.8947 116.135 53.7418 115.34 54.9335" stroke="black" stroke-linecap="round"/>
<path d="M105.338 99.8235C106.12 99.7365 107.048 99.2036 107.831 98.9831C109.528 98.506 111.17 97.955 112.819 97.3296C116.036 96.1095 119.261 95.4995 122.307 93.8462C123.701 93.0895 125.089 92.4479 126.075 91.149C127.503 89.266 128.795 87.3734 130.331 85.5649C131.768 83.8719 132.473 82.0343 133.204 79.9536C133.958 77.8065 134.147 75.5419 134.885 73.4343C137.291 66.5583 144.185 64.6968 150.607 62.9843C155.459 61.6906 160.409 60.5117 165.137 58.8097C167.155 58.0831 169.129 56.917 171.209 56.3972" stroke="black" stroke-linecap="round"/>
<path d="M96.3108 133.247C100.399 133.247 104.459 132.887 108.536 132.651C111.775 132.463 115.155 132.36 118.336 131.661C121.605 130.944 124.937 129.289 127.783 127.582C130.536 125.93 132.395 123.298 134.343 120.818C135.772 118.999 136.473 116.566 138.463 115.193C142.788 112.211 147.718 111.324 152.478 109.284C154.413 108.455 156.368 107.029 158.048 105.801C159.859 104.477 161.713 103.022 163.158 101.287" stroke="black" stroke-linecap="round"/>
<path d="M163.89 146.177C161.692 145.787 159.494 146.165 157.276 146.177C154.454 146.193 151.644 146.054 148.832 145.811C146.106 145.576 143.469 145.817 140.767 146.177C138.975 146.416 136.716 147.5 135.318 148.644C132.786 150.716 129.461 152.393 126.346 153.347C119.124 155.56 111.272 155.204 103.792 155.204C101.434 155.204 99.0757 155.204 96.7173 155.204C95.0688 155.204 92.6475 155.446 91.1874 154.716" stroke="black" stroke-linecap="round"/>
<path d="M80.9407 176.917C84.2569 177.172 87.4768 177.649 90.8214 177.649C94.3301 177.649 97.8011 177.598 101.298 177.419C103.246 177.319 105.049 177.221 106.557 175.928C107.948 174.736 108.599 175.497 110.108 175.928C111.389 176.294 112.469 177.572 113.985 177.839C115.763 178.153 117.419 178.381 119.244 178.381C121.503 178.381 123.762 178.381 126.021 178.381C128.902 178.381 131.742 178.869 134.614 178.869" stroke="black" stroke-linecap="round"/>
<path d="M142.665 213.025C140.863 213.025 138.775 211.657 137.135 211.019C135.148 210.245 133.1 209.585 131.09 208.877C128.196 207.859 124.956 207.169 121.873 207.169C119.486 207.169 116.456 207.68 114.12 208.2C110.076 209.098 105.693 208.323 101.624 207.847C98.8306 207.521 96.0865 206.484 93.356 205.841C91.3127 205.36 89.4083 204.799 87.6634 203.591C86.5663 202.832 85.1215 202.423 84.1123 201.558C83.3257 200.884 82.4002 200.086 81.51 199.552C79.6182 198.417 77.5464 197.395 75.5735 196.435C73.9825 195.661 72.2464 195.259 70.6941 194.483" stroke="black" stroke-linecap="round"/>
<path d="M75.3948 160.439C73.5106 160.372 71.5843 159.586 69.7587 159.147C66.6416 158.398 63.5639 157.579 60.5025 156.63C57.1365 155.587 53.4229 154.224 49.8317 154.224C48.0232 154.224 45.9517 153.943 44.1622 154.269C41.9252 154.675 39.4582 153.878 37.3008 153.311C33.8767 152.41 30.9609 151.285 27.9222 149.479C26.278 148.502 24.5852 147.613 22.9098 146.694C22.3104 146.366 21.5411 146.255 20.9717 145.892C19.5164 144.966 17.4406 144.575 15.8034 144.043C13.0195 143.139 9.76638 141.994 6.82568 141.994" stroke="black" stroke-linecap="round"/>
<path d="M73.5903 160.038C74.0996 160.095 74.6076 160.515 75.0829 160.651C75.5636 160.788 75.9522 160.945 76.3973 161.241" stroke="black" stroke-linecap="round"/>
<path d="M67.0104 81.1686C69.9223 84.0806 75.0679 85.9613 75.2458 90.7655C75.2731 91.5017 75.4475 93.0655 75.8484 93.6669C76.8812 95.216 79.0667 95.9135 80.7807 96.3897C83.3842 97.1129 85.0349 99.3268 86.8513 101.21C87.6406 102.029 88.1751 103.171 88.9492 104.023C89.5825 104.719 90.4136 105.581 90.7123 106.478" stroke="black" stroke-linecap="round"/>
<path d="M83.4812 42.0002C84.0986 42.1124 84.6562 42.6883 85.1774 43.0045C86.229 43.6425 87.3242 44.2156 88.3466 44.9016C89.7093 45.8158 90.8088 47.2792 91.7166 48.6287C92.603 49.9462 93.0205 51.718 94.1382 52.8357C95.781 54.4785 97.5973 55.9154 99.249 57.5672C99.7695 58.0876 100.27 58.6099 100.744 59.1629C101.115 59.595 101.02 60.1206 101.559 60.4797" stroke="black" stroke-linecap="round"/>
<path d="M83.6821 40.9963C83.0125 40.9963 83.0795 41.1802 83.0795 41.7997" stroke="black" stroke-linecap="round"/>
</svg>
