<svg width="179" height="232" viewBox="0 0 179 232" fill="none" xmlns="http://www.w3.org/2000/svg">
<path d="M73.6783 64.0002C89.1782 165.5 93.5713 171.283 153.678 230.5" stroke="black" stroke-width="2" stroke-linecap="round"/>
<path d="M45.204 127.759C25.2253 115.18 19.5061 109.095 13.0926 98.9107C29.0359 99.4554 38.0675 100.657 54.7599 108.379C61.3533 120.067 68.0411 125.941 86.2847 135C66.1947 133.797 55.6381 132.839 45.204 127.759Z" stroke="black" stroke-width="2" stroke-linecap="round"/>
<path d="M34.4776 91.9434C16.8061 76.1441 12.483 68.5611 8.63113 55.9151C25.546 56.8242 34.8636 58.4391 50.4544 68.2039C54.0534 82.7056 59.4764 90.0432 76.3326 101.478C55.1712 99.697 44.1482 98.3589 34.4776 91.9434Z" stroke="black" stroke-width="2" stroke-linecap="round"/>
<path d="M38.1803 44.5587C23.8885 25.7791 20.614 18.1402 18.0478 6.51067C32.5758 12.8459 40.5121 17.248 53.3702 30.3979C55.6077 43.4636 59.845 51.2651 73.6944 66.2012C55.5575 57.7481 46.1345 53.009 38.1803 44.5587Z" stroke="black" stroke-width="2" stroke-linecap="round"/>
<path d="M80.9382 49.1057C88.7945 42.4854 92.1246 40.9581 97.3224 39.7434C95.1861 46.4329 93.5873 50.0902 88.2371 56.0345C82.3631 57.1029 79.0095 59.0728 72.8925 65.4778C75.8091 57.1248 77.4838 52.784 80.9382 49.1057Z" stroke="black" stroke-width="2" stroke-linecap="round"/>
<path d="M91.4872 89.8603C101.369 82.2035 105.846 80.7799 113.099 80.2235C111.516 89.271 110.027 94.1201 103.622 101.38C95.3571 101.575 90.9455 103.624 83.5341 111.367C85.871 100.126 87.3155 94.3202 91.4872 89.8603Z" stroke="black" stroke-width="2" stroke-linecap="round"/>
<path d="M51.9215 161.348C28.7335 156.89 21.1923 153.27 11.5128 146.039C26.5639 140.637 35.4147 138.42 53.7744 139.514C64.1684 148.098 72.5353 151.159 92.8263 152.939C73.6729 159.258 63.4898 162.271 51.9215 161.348Z" stroke="black" stroke-width="2" stroke-linecap="round"/>
<path d="M133.592 144.665C156.731 140.311 164.821 140.304 175.876 141.975C163.013 150.189 155.199 154.397 137.512 159.427C125.427 157.101 116.7 157.729 97.0033 162.917C113.517 152.824 122.386 147.683 133.592 144.665Z" stroke="black" stroke-width="2" stroke-linecap="round"/>
<path d="M73.6028 184.137C55.8926 183.447 49.9293 181.88 42.0329 178.27C52.7506 173.586 59.1431 171.425 72.9372 170.464C81.4933 174.847 88.0199 175.995 103.319 175.286C89.6277 180.904 82.3162 183.676 73.6028 184.137Z" stroke="black" stroke-width="2" stroke-linecap="round"/>
<path d="M79.9047 213.106C56.6111 216.82 48.3712 216.19 37.0036 213.193C49.5837 203.759 57.2751 199.023 74.9725 194.02C87.43 197.931 96.2798 197.821 116.014 192.775C99.835 204.311 91.1272 210.151 79.9047 213.106Z" stroke="black" stroke-width="2" stroke-linecap="round"/>
<path d="M19.9117 8.33557C24.2532 12.9325 30.5083 15.5694 35.2275 19.8021C37.0632 21.4485 39.6756 23.0881 40.649 25.4675C41.4902 27.5239 41.3298 29.7898 42.0586 31.892C44.3508 38.5043 50.0872 44.1959 55.3684 48.6174C56.7554 49.7786 58.1232 51.0108 59.5972 52.0601C60.7696 52.8947 62.5436 53.7418 63.338 54.9335" stroke="black" stroke-linecap="round"/>
<path d="M73.3407 99.8235C72.5584 99.7365 71.6307 99.2036 70.8468 98.9831C69.1505 98.506 67.5079 97.955 65.859 97.3296C62.6424 96.1095 59.4169 95.4995 56.3714 93.8462C54.9774 93.0895 53.5888 92.4479 52.6034 91.149C51.1749 89.266 49.8834 87.3734 48.3475 85.5649C46.9098 83.8719 46.2048 82.0343 45.4741 79.9536C44.7201 77.8065 44.5311 75.5419 43.7935 73.4343C41.3869 66.5583 34.4928 64.6968 28.0711 62.9843C23.2196 61.6906 18.269 60.5117 13.5414 58.8097C11.5229 58.0831 9.54873 56.917 7.46934 56.3972" stroke="black" stroke-linecap="round"/>
<path d="M82.3675 133.247C78.2797 133.247 74.2193 132.887 70.142 132.651C66.903 132.463 63.5235 132.36 60.3426 131.661C57.0733 130.944 53.741 129.289 50.8956 127.582C48.1424 125.93 46.2836 123.298 44.3356 120.818C42.9064 118.999 42.2057 116.566 40.2152 115.193C35.8906 112.211 30.9599 111.324 26.2006 109.284C24.2656 108.455 22.3105 107.029 20.63 105.801C18.819 104.477 16.9655 103.022 15.5203 101.287" stroke="black" stroke-linecap="round"/>
<path d="M14.7884 146.177C16.9862 145.787 19.184 146.165 21.4026 146.177C24.2246 146.193 27.0347 146.054 29.8466 145.811C32.5719 145.576 35.2094 145.817 37.9111 146.177C39.7036 146.416 41.9621 147.5 43.3597 148.644C45.8922 150.716 49.2172 152.393 52.3323 153.347C59.554 155.56 67.406 155.204 74.8858 155.204C77.2442 155.204 79.6025 155.204 81.9609 155.204C83.6094 155.204 86.0307 155.446 87.4908 154.716" stroke="black" stroke-linecap="round"/>
<path d="M97.7375 176.917C94.4213 177.172 91.2013 177.649 87.8568 177.649C84.348 177.649 80.8771 177.598 77.3797 177.419C75.4318 177.319 73.6293 177.221 72.1208 175.928C70.73 174.736 70.0788 175.497 68.5698 175.928C67.2894 176.294 66.2096 177.572 64.6934 177.839C62.9147 178.153 61.2591 178.381 59.4345 178.381C57.1756 178.381 54.9166 178.381 52.6576 178.381C49.7765 178.381 46.9361 178.869 44.0645 178.869" stroke="black" stroke-linecap="round"/>
<path d="M36.0136 213.025C37.8157 213.025 39.9037 211.657 41.5435 211.019C43.5303 210.245 45.5779 209.585 47.5885 208.877C50.482 207.859 53.7217 207.169 56.8051 207.169C59.1925 207.169 62.2217 207.68 64.5578 208.2C68.6025 209.098 72.9852 208.323 77.0544 207.847C79.8476 207.521 82.5917 206.484 85.3222 205.841C87.3656 205.36 89.2699 204.799 91.0148 203.591C92.1119 202.832 93.5567 202.423 94.5659 201.558C95.3525 200.884 96.278 200.086 97.1682 199.552C99.0601 198.417 101.132 197.395 103.105 196.435C104.696 195.661 106.432 195.259 107.984 194.483" stroke="black" stroke-linecap="round"/>
<path d="M103.283 160.439C105.168 160.372 107.094 159.586 108.92 159.147C112.037 158.398 115.114 157.579 118.176 156.63C121.542 155.587 125.255 154.224 128.846 154.224C130.655 154.224 132.726 153.943 134.516 154.269C136.753 154.675 139.22 153.878 141.377 153.311C144.801 152.41 147.717 151.285 150.756 149.479C152.4 148.502 154.093 147.613 155.768 146.694C156.368 146.366 157.137 146.255 157.706 145.892C159.162 144.966 161.238 144.575 162.875 144.043C165.659 143.139 168.912 141.994 171.852 141.994" stroke="black" stroke-linecap="round"/>
<path d="M105.088 160.038C104.579 160.095 104.071 160.515 103.595 160.651C103.115 160.788 102.726 160.945 102.281 161.241" stroke="black" stroke-linecap="round"/>
<path d="M111.668 81.1686C108.756 84.0806 103.61 85.9613 103.432 90.7655C103.405 91.5017 103.231 93.0655 102.83 93.6669C101.797 95.216 99.6116 95.9135 97.8975 96.3897C95.294 97.1129 93.6433 99.3268 91.8269 101.21C91.0376 102.029 90.5031 103.171 89.729 104.023C89.0957 104.719 88.2646 105.581 87.9659 106.478" stroke="black" stroke-linecap="round"/>
<path d="M95.197 42.0002C94.5796 42.1124 94.022 42.6883 93.5008 43.0045C92.4493 43.6425 91.354 44.2156 90.3316 44.9016C88.9689 45.8158 87.8695 47.2792 86.9616 48.6287C86.0753 49.9462 85.6577 51.718 84.5401 52.8357C82.8973 54.4785 81.0809 55.9154 79.4292 57.5672C78.9088 58.0876 78.4079 58.6099 77.9339 59.1629C77.5635 59.595 77.6578 60.1206 77.1192 60.4797" stroke="black" stroke-linecap="round"/>
<path d="M94.9961 40.9963C95.6658 40.9963 95.5987 41.1802 95.5987 41.7997" stroke="black" stroke-linecap="round"/>
</svg>
